STARTFONT 2.1
FONT -montecarlo-montecarlo-medium-r-normal--16-120-100-100-m-80-iso8859-1
SIZE 16 100 100
FONTBOUNDINGBOX 8 16 0 -2
STARTPROPERTIES 2
FONT_ASCENT 12
FONT_DESCENT 4
ENDPROPERTIES
CHARS 128
STARTCHAR chr0
ENCODING 0
SWIDTH 500 0
DWIDTH 8 0
BBX 8 16 0 -2
BITMAP
00
00
00
00
00
00
00
00
00
00
00
00
00
00
00
00
ENDCHAR
STARTCHAR chr1
ENCODING 1
SWIDTH 500 0
DWIDTH 8 0
BBX 8 16 0 -2
BITMAP
00
00
00
00
00
00
00
00
00
00
00
00
00
00
00
00
ENDCHAR
STARTCHAR chr2
ENCODING 2
SWIDTH 500 0
DWIDTH 8 0
BBX 8 16 0 -2
BITMAP
00
00
00
00
00
00
00
00
00
00
00
00
00
00
00
00
ENDCHAR
STARTCHAR chr3
ENCODING 3
SWIDTH 500 0
DWIDTH 8 0
BBX 8 16 0 -2
BITMAP
00
00
00
00
00
00
00
00
00
00
00
00
00
00
00
00
ENDCHAR
STARTCHAR chr4
ENCODING 4
SWIDTH 500 0
DWIDTH 8 0
BBX 8 16 0 -2
BITMAP
00
00
00
00
00
00
00
00
00
00
00
00
00
00
00
00
ENDCHAR
STARTCHAR chr5
ENCODING 5
SWIDTH 500 0
DWIDTH 8 0
BBX 8 16 0 -2
BITMAP
00
00
00
00
00
00
00
00
00
00
00
00
00
00
00
00
ENDCHAR
STARTCHAR chr6
ENCODING 6
SWIDTH 500 0
DWIDTH 8 0
BBX 8 16 0 -2
BITMAP
00
00
00
00
00
00
00
00
00
00
00
00
00
00
00
00
ENDCHAR
STARTCHAR chr7
ENCODING 7
SWIDTH 500 0
DWIDTH 8 0
BBX 8 16 0 -2
BITMAP
00
00
00
00
00
00
00
00
00
00
00
00
00
00
00
00
ENDCHAR
STARTCHAR chr8
ENCODING 8
SWIDTH 500 0
DWIDTH 8 0
BBX 8 16 0 -2
BITMAP
00
00
00
00
00
00
00
00
00
00
00
00
00
00
00
00
ENDCHAR
STARTCHAR chr9
ENCODING 9
SWIDTH 500 0
DWIDTH 8 0
BBX 8 16 0 -2
BITMAP
00
00
00
00
00
00
00
00
00
00
00
00
00
00
00
00
ENDCHAR
STARTCHAR chr10
ENCODING 10
SWIDTH 500 0
DWIDTH 8 0
BBX 8 16 0 -2
BITMAP
00
00
00
00
00
00
00
00
00
00
00
00
00
00
00
00
ENDCHAR
STARTCHAR chr11
ENCODING 11
SWIDTH 500 0
DWIDTH 8 0
BBX 8 16 0 -2
BITMAP
00
00
00
00
00
00
00
00
00
00
00
00
00
00
00
00
ENDCHAR
STARTCHAR chr12
ENCODING 12
SWIDTH 500 0
DWIDTH 8 0
BBX 8 16 0 -2
BITMAP
00
00
00
00
00
00
00
00
00
00
00
00
00
00
00
00
ENDCHAR
STARTCHAR chr13
ENCODING 13
SWIDTH 500 0
DWIDTH 8 0
BBX 8 16 0 -2
BITMAP
00
00
00
00
00
00
00
00
00
00
00
00
00
00
00
00
ENDCHAR
STARTCHAR chr14
ENCODING 14
SWIDTH 500 0
DWIDTH 8 0
BBX 8 16 0 -2
BITMAP
00
00
00
00
00
00
00
00
00
00
00
00
00
00
00
00
ENDCHAR
STARTCHAR chr15
ENCODING 15
SWIDTH 500 0
DWIDTH 8 0
BBX 8 16 0 -2
BITMAP
00
00
00
00
00
00
00
00
00
00
00
00
00
00
00
00
ENDCHAR
STARTCHAR chr16
ENCODING 16
SWIDTH 500 0
DWIDTH 8 0
BBX 8 16 0 -2
BITMAP
00
00
00
00
00
00
00
00
00
00
00
00
00
00
00
00
ENDCHAR
STARTCHAR chr17
ENCODING 17
SWIDTH 500 0
DWIDTH 8 0
BBX 8 16 0 -2
BITMAP
00
00
00
00
00
00
00
00
00
00
00
00
00
00
00
00
ENDCHAR
STARTCHAR chr18
ENCODING 18
SWIDTH 500 0
DWIDTH 8 0
BBX 8 16 0 -2
BITMAP
00
00
00
00
00
00
00
00
00
00
00
00
00
00
00
00
ENDCHAR
STARTCHAR chr19
ENCODING 19
SWIDTH 500 0
DWIDTH 8 0
BBX 8 16 0 -2
BITMAP
00
00
00
00
00
00
00
00
00
00
00
00
00
00
00
00
ENDCHAR
STARTCHAR chr20
ENCODING 20
SWIDTH 500 0
DWIDTH 8 0
BBX 8 16 0 -2
BITMAP
00
00
00
00
00
00
00
00
00
00
00
00
00
00
00
00
ENDCHAR
STARTCHAR chr21
ENCODING 21
SWIDTH 500 0
DWIDTH 8 0
BBX 8 16 0 -2
BITMAP
00
00
00
00
00
00
00
00
00
00
00
00
00
00
00
00
ENDCHAR
STARTCHAR chr22
ENCODING 22
SWIDTH 500 0
DWIDTH 8 0
BBX 8 16 0 -2
BITMAP
00
00
00
00
00
00
00
00
00
00
00
00
00
00
00
00
ENDCHAR
STARTCHAR chr23
ENCODING 23
SWIDTH 500 0
DWIDTH 8 0
BBX 8 16 0 -2
BITMAP
00
00
00
00
00
00
00
00
00
00
00
00
00
00
00
00
ENDCHAR
STARTCHAR chr24
ENCODING 24
SWIDTH 500 0
DWIDTH 8 0
BBX 8 16 0 -2
BITMAP
00
00
00
00
00
00
00
00
00
00
00
00
00
00
00
00
ENDCHAR
STARTCHAR chr25
ENCODING 25
SWIDTH 500 0
DWIDTH 8 0
BBX 8 16 0 -2
BITMAP
00
00
00
00
00
00
00
00
00
00
00
00
00
00
00
00
ENDCHAR
STARTCHAR chr26
ENCODING 26
SWIDTH 500 0
DWIDTH 8 0
BBX 8 16 0 -2
BITMAP
00
00
00
00
00
00
00
00
00
00
00
00
00
00
00
00
ENDCHAR
STARTCHAR chr27
ENCODING 27
SWIDTH 500 0
DWIDTH 8 0
BBX 8 16 0 -2
BITMAP
00
00
00
00
00
00
00
00
00
00
00
00
00
00
00
00
ENDCHAR
STARTCHAR chr28
ENCODING 28
SWIDTH 500 0
DWIDTH 8 0
BBX 8 16 0 -2
BITMAP
00
00
00
00
00
00
00
00
00
00
00
00
00
00
00
00
ENDCHAR
STARTCHAR chr29
ENCODING 29
SWIDTH 500 0
DWIDTH 8 0
BBX 8 16 0 -2
BITMAP
00
00
00
00
00
00
00
00
00
00
00
00
00
00
00
00
ENDCHAR
STARTCHAR chr30
ENCODING 30
SWIDTH 500 0
DWIDTH 8 0
BBX 8 16 0 -2
BITMAP
00
00
00
00
00
00
00
00
00
00
00
00
00
00
00
00
ENDCHAR
STARTCHAR chr31
ENCODING 31
SWIDTH 500 0
DWIDTH 8 0
BBX 8 16 0 -2
BITMAP
00
00
00
00
00
00
00
00
00
00
00
00
00
00
00
00
ENDCHAR
STARTCHAR chr32
ENCODING 32
SWIDTH 500 0
DWIDTH 8 0
BBX 8 16 0 -2
BITMAP
00
00
00
00
00
00
00
00
00
00
00
00
00
00
00
00
ENDCHAR
STARTCHAR chr33
ENCODING 33
SWIDTH 500 0
DWIDTH 8 0
BBX 8 16 0 -2
BITMAP
00
00
08
08
08
08
08
00
08
00
00
00
00
00
00
00
ENDCHAR
STARTCHAR chr34
ENCODING 34
SWIDTH 500 0
DWIDTH 8 0
BBX 8 16 0 -2
BITMAP
00
00
14
14
14
00
00
00
00
00
00
00
00
00
00
00
ENDCHAR
STARTCHAR chr35
ENCODING 35
SWIDTH 500 0
DWIDTH 8 0
BBX 8 16 0 -2
BITMAP
00
00
14
14
3E
14
3E
14
14
00
00
00
00
00
00
00
ENDCHAR
STARTCHAR chr36
ENCODING 36
SWIDTH 500 0
DWIDTH 8 0
BBX 8 16 0 -2
BITMAP
00
08
1E
28
1C
0A
3C
08
00
00
00
00
00
00
00
00
ENDCHAR
STARTCHAR chr37
ENCODING 37
SWIDTH 500 0
DWIDTH 8 0
BBX 8 16 0 -2
BITMAP
00
00
32
32
04
08
10
26
26
00
00
00
00
00
00
00
ENDCHAR
STARTCHAR chr38
ENCODING 38
SWIDTH 500 0
DWIDTH 8 0
BBX 8 16 0 -2
BITMAP
00
00
0C
12
0C
18
2A
22
1D
00
00
00
00
00
00
00
ENDCHAR
STARTCHAR chr39
ENCODING 39
SWIDTH 500 0
DWIDTH 8 0
BBX 8 16 0 -2
BITMAP
00
00
08
08
08
00
00
00
00
00
00
00
00
00
00
00
ENDCHAR
STARTCHAR chr40
ENCODING 40
SWIDTH 500 0
DWIDTH 8 0
BBX 8 16 0 -2
BITMAP
00
00
04
08
10
10
10
08
04
00
00
00
00
00
00
00
ENDCHAR
STARTCHAR chr41
ENCODING 41
SWIDTH 500 0
DWIDTH 8 0
BBX 8 16 0 -2
BITMAP
00
00
10
08
04
04
04
08
10
00
00
00
00
00
00
00
ENDCHAR
STARTCHAR chr42
ENCODING 42
SWIDTH 500 0
DWIDTH 8 0
BBX 8 16 0 -2
BITMAP
00
00
00
08
2A
1C
2A
08
00
00
00
00
00
00
00
00
ENDCHAR
STARTCHAR chr43
ENCODING 43
SWIDTH 500 0
DWIDTH 8 0
BBX 8 16 0 -2
BITMAP
00
00
00
08
08
3E
08
08
00
00
00
00
00
00
00
00
ENDCHAR
STARTCHAR chr44
ENCODING 44
SWIDTH 500 0
DWIDTH 8 0
BBX 8 16 0 -2
BITMAP
00
00
00
00
00
00
08
08
08
10
00
00
00
00
00
00
ENDCHAR
STARTCHAR chr45
ENCODING 45
SWIDTH 500 0
DWIDTH 8 0
BBX 8 16 0 -2
BITMAP
00
00
00
00
00
3E
00
00
00
00
00
00
00
00
00
00
ENDCHAR
STARTCHAR chr46
ENCODING 46
SWIDTH 500 0
DWIDTH 8 0
BBX 8 16 0 -2
BITMAP
00
00
00
00
00
00
00
08
00
00
00
00
00
00
00
00
ENDCHAR
STARTCHAR chr47
ENCODING 47
SWIDTH 500 0
DWIDTH 8 0
BBX 8 16 0 -2
BITMAP
00
02
04
04
08
08
10
20
20
00
00
00
00
00
00
00
ENDCHAR
STARTCHAR chr48
ENCODING 48
SWIDTH 500 0
DWIDTH 8 0
BBX 8 16 0 -2
BITMAP
00
00
1C
22
26
2A
32
22
22
1C
00
00
00
00
00
00
ENDCHAR
STARTCHAR chr49
ENCODING 49
SWIDTH 500 0
DWIDTH 8 0
BBX 8 16 0 -2
BITMAP
00
00
18
28
08
08
08
3E
00
00
00
00
00
00
00
00
ENDCHAR
STARTCHAR chr50
ENCODING 50
SWIDTH 500 0
DWIDTH 8 0
BBX 8 16 0 -2
BITMAP
00
00
1C
22
02
0C
10
20
3E
00
00
00
00
00
00
00
ENDCHAR
STARTCHAR chr51
ENCODING 51
SWIDTH 500 0
DWIDTH 8 0
BBX 8 16 0 -2
BITMAP
00
00
1C
22
02
0C
02
22
1C
00
00
00
00
00
00
00
ENDCHAR
STARTCHAR chr52
ENCODING 52
SWIDTH 500 0
DWIDTH 8 0
BBX 8 16 0 -2
BITMAP
00
00
04
0C
14
24
3E
04
04
00
00
00
00
00
00
00
ENDCHAR
STARTCHAR chr53
ENCODING 53
SWIDTH 500 0
DWIDTH 8 0
BBX 8 16 0 -2
BITMAP
00
00
3E
20
3C
02
02
22
1C
00
00
00
00
00
00
00
ENDCHAR
STARTCHAR chr54
ENCODING 54
SWIDTH 500 0
DWIDTH 8 0
BBX 8 16 0 -2
BITMAP
00
00
0C
10
20
3C
22
22
1C
00
00
00
00
00
00
00
ENDCHAR
STARTCHAR chr55
ENCODING 55
SWIDTH 500 0
DWIDTH 8 0
BBX 8 16 0 -2
BITMAP
00
00
3E
02
04
08
10
10
10
00
00
00
00
00
00
00
ENDCHAR
STARTCHAR chr56
ENCODING 56
SWIDTH 500 0
DWIDTH 8 0
BBX 8 16 0 -2
BITMAP
00
00
1C
22
22
1C
22
22
1C
00
00
00
00
00
00
00
ENDCHAR
STARTCHAR chr57
ENCODING 57
SWIDTH 500 0
DWIDTH 8 0
BBX 8 16 0 -2
BITMAP
00
00
1C
22
22
1E
02
04
18
00
00
00
00
00
00
00
ENDCHAR
STARTCHAR chr58
ENCODING 58
SWIDTH 500 0
DWIDTH 8 0
BBX 8 16 0 -2
BITMAP
00
00
00
08
00
00
00
08
00
00
00
00
00
00
00
00
ENDCHAR
STARTCHAR chr59
ENCODING 59
SWIDTH 500 0
DWIDTH 8 0
BBX 8 16 0 -2
BITMAP
00
00
00
08
00
00
08
08
10
00
00
00
00
00
00
00
ENDCHAR
STARTCHAR chr60
ENCODING 60
SWIDTH 500 0
DWIDTH 8 0
BBX 8 16 0 -2
BITMAP
00
00
02
04
08
10
08
04
02
00
00
00
00
00
00
00
ENDCHAR
STARTCHAR chr61
ENCODING 61
SWIDTH 500 0
DWIDTH 8 0
BBX 8 16 0 -2
BITMAP
00
00
00
00
3E
00
3E
00
00
00
00
00
00
00
00
00
ENDCHAR
STARTCHAR chr62
ENCODING 62
SWIDTH 500 0
DWIDTH 8 0
BBX 8 16 0 -2
BITMAP
00
00
20
10
08
04
08
10
20
00
00
00
00
00
00
00
ENDCHAR
STARTCHAR chr63
ENCODING 63
SWIDTH 500 0
DWIDTH 8 0
BBX 8 16 0 -2
BITMAP
00
00
1C
22
02
04
08
00
08
00
00
00
00
00
00
00
ENDCHAR
STARTCHAR chr64
ENCODING 64
SWIDTH 500 0
DWIDTH 8 0
BBX 8 16 0 -2
BITMAP
00
00
1C
22
2E
2A
2E
20
1E
00
00
00
00
00
00
00
ENDCHAR
STARTCHAR chr65
ENCODING 65
SWIDTH 500 0
DWIDTH 8 0
BBX 8 16 0 -2
BITMAP
00
00
08
14
22
22
3E
22
22
00
00
00
00
00
00
00
ENDCHAR
STARTCHAR chr66
ENCODING 66
SWIDTH 500 0
DWIDTH 8 0
BBX 8 16 0 -2
BITMAP
00
00
3C
22
22
3C
22
22
3C
00
00
00
00
00
00
00
ENDCHAR
STARTCHAR chr67
ENCODING 67
SWIDTH 500 0
DWIDTH 8 0
BBX 8 16 0 -2
BITMAP
00
00
1C
22
20
20
20
22
1C
00
00
00
00
00
00
00
ENDCHAR
STARTCHAR chr68
ENCODING 68
SWIDTH 500 0
DWIDTH 8 0
BBX 8 16 0 -2
BITMAP
00
00
38
24
22
22
22
24
38
00
00
00
00
00
00
00
ENDCHAR
STARTCHAR chr69
ENCODING 69
SWIDTH 500 0
DWIDTH 8 0
BBX 8 16 0 -2
BITMAP
00
00
3E
20
20
3C
20
20
3E
00
00
00
00
00
00
00
ENDCHAR
STARTCHAR chr70
ENCODING 70
SWIDTH 500 0
DWIDTH 8 0
BBX 8 16 0 -2
BITMAP
00
00
3E
20
20
3C
20
20
20
00
00
00
00
00
00
00
ENDCHAR
STARTCHAR chr71
ENCODING 71
SWIDTH 500 0
DWIDTH 8 0
BBX 8 16 0 -2
BITMAP
00
00
1C
22
20
2E
22
22
1C
00
00
00
00
00
00
00
ENDCHAR
STARTCHAR chr72
ENCODING 72
SWIDTH 500 0
DWIDTH 8 0
BBX 8 16 0 -2
BITMAP
00
00
22
22
22
3E
22
22
22
00
00
00
00
00
00
00
ENDCHAR
STARTCHAR chr73
ENCODING 73
SWIDTH 500 0
DWIDTH 8 0
BBX 8 16 0 -2
BITMAP
00
00
1C
08
08
08
08
08
1C
00
00
00
00
00
00
00
ENDCHAR
STARTCHAR chr74
ENCODING 74
SWIDTH 500 0
DWIDTH 8 0
BBX 8 16 0 -2
BITMAP
00
00
02
02
02
02
22
22
1C
00
00
00
00
00
00
00
ENDCHAR
STARTCHAR chr75
ENCODING 75
SWIDTH 500 0
DWIDTH 8 0
BBX 8 16 0 -2
BITMAP
00
00
22
24
28
30
28
24
22
00
00
00
00
00
00
00
ENDCHAR
STARTCHAR chr76
ENCODING 76
SWIDTH 500 0
DWIDTH 8 0
BBX 8 16 0 -2
BITMAP
00
00
20
20
20
20
20
20
3E
00
00
00
00
00
00
00
ENDCHAR
STARTCHAR chr77
ENCODING 77
SWIDTH 500 0
DWIDTH 8 0
BBX 8 16 0 -2
BITMAP
00
00
22
36
2A
2A
22
22
22
00
00
00
00
00
00
00
ENDCHAR
STARTCHAR chr78
ENCODING 78
SWIDTH 500 0
DWIDTH 8 0
BBX 8 16 0 -2
BITMAP
00
00
22
32
2A
26
22
22
22
00
00
00
00
00
00
00
ENDCHAR
STARTCHAR chr79
ENCODING 79
SWIDTH 500 0
DWIDTH 8 0
BBX 8 16 0 -2
BITMAP
00
00
1C
22
22
22
22
22
1C
00
00
00
00
00
00
00
ENDCHAR
STARTCHAR chr80
ENCODING 80
SWIDTH 500 0
DWIDTH 8 0
BBX 8 16 0 -2
BITMAP
00
00
3C
22
22
3C
20
20
20
00
00
00
00
00
00
00
ENDCHAR
STARTCHAR chr81
ENCODING 81
SWIDTH 500 0
DWIDTH 8 0
BBX 8 16 0 -2
BITMAP
00
00
1C
22
22
22
26
24
1A
00
00
00
00
00
00
00
ENDCHAR
STARTCHAR chr82
ENCODING 82
SWIDTH 500 0
DWIDTH 8 0
BBX 8 16 0 -2
BITMAP
00
00
3C
22
22
3C
28
24
22
00
00
00
00
00
00
00
ENDCHAR
STARTCHAR chr83
ENCODING 83
SWIDTH 500 0
DWIDTH 8 0
BBX 8 16 0 -2
BITMAP
00
00
1C
22
20
1C
02
22
1C
00
00
00
00
00
00
00
ENDCHAR
STARTCHAR chr84
ENCODING 84
SWIDTH 500 0
DWIDTH 8 0
BBX 8 16 0 -2
BITMAP
00
00
3E
08
08
08
08
08
08
00
00
00
00
00
00
00
ENDCHAR
STARTCHAR chr85
ENCODING 85
SWIDTH 500 0
DWIDTH 8 0
BBX 8 16 0 -2
BITMAP
00
00
22
22
22
22
22
22
1C
00
00
00
00
00
00
00
ENDCHAR
STARTCHAR chr86
ENCODING 86
SWIDTH 500 0
DWIDTH 8 0
BBX 8 16 0 -2
BITMAP
00
00
22
22
22
14
14
08
08
00
00
00
00
00
00
00
ENDCHAR
STARTCHAR chr87
ENCODING 87
SWIDTH 500 0
DWIDTH 8 0
BBX 8 16 0 -2
BITMAP
00
00
22
22
2A
2A
36
36
22
00
00
00
00
00
00
00
ENDCHAR
STARTCHAR chr88
ENCODING 88
SWIDTH 500 0
DWIDTH 8 0
BBX 8 16 0 -2
BITMAP
00
00
22
14
08
08
08
14
22
00
00
00
00
00
00
00
ENDCHAR
STARTCHAR chr89
ENCODING 89
SWIDTH 500 0
DWIDTH 8 0
BBX 8 16 0 -2
BITMAP
00
00
22
22
14
08
08
08
08
00
00
00
00
00
00
00
ENDCHAR
STARTCHAR chr90
ENCODING 90
SWIDTH 500 0
DWIDTH 8 0
BBX 8 16 0 -2
BITMAP
00
00
3E
02
04
08
10
20
3E
00
00
00
00
00
00
00
ENDCHAR
STARTCHAR chr91
ENCODING 91
SWIDTH 500 0
DWIDTH 8 0
BBX 8 16 0 -2
BITMAP
00
00
1C
10
10
10
10
10
1C
00
00
00
00
00
00
00
ENDCHAR
STARTCHAR chr92
ENCODING 92
SWIDTH 500 0
DWIDTH 8 0
BBX 8 16 0 -2
BITMAP
00
00
20
20
10
08
04
02
02
00
00
00
00
00
00
00
ENDCHAR
STARTCHAR chr93
ENCODING 93
SWIDTH 500 0
DWIDTH 8 0
BBX 8 16 0 -2
BITMAP
00
00
1C
04
04
04
04
04
1C
00
00
00
00
00
00
00
ENDCHAR
STARTCHAR chr94
ENCODING 94
SWIDTH 500 0
DWIDTH 8 0
BBX 8 16 0 -2
BITMAP
00
00
08
14
22
00
00
00
00
00
00
00
00
00
00
00
ENDCHAR
STARTCHAR chr95
ENCODING 95
SWIDTH 500 0
DWIDTH 8 0
BBX 8 16 0 -2
BITMAP
00
00
00
00
00
00
00
00
3E
00
00
00
00
00
00
00
ENDCHAR
STARTCHAR chr96
ENCODING 96
SWIDTH 500 0
DWIDTH 8 0
BBX 8 16 0 -2
BITMAP
00
10
08
00
00
00
00
00
00
00
00
00
00
00
00
00
ENDCHAR
STARTCHAR chr97
ENCODING 97
SWIDTH 500 0
DWIDTH 8 0
BBX 8 16 0 -2
BITMAP
00
00
00
1C
02
1E
22
1E
00
00
00
00
00
00
00
00
ENDCHAR
STARTCHAR chr98
ENCODING 98
SWIDTH 500 0
DWIDTH 8 0
BBX 8 16 0 -2
BITMAP
00
20
20
3C
22
22
22
3C
00
00
00
00
00
00
00
00
ENDCHAR
STARTCHAR chr99
ENCODING 99
SWIDTH 500 0
DWIDTH 8 0
BBX 8 16 0 -2
BITMAP
00
00
00
1C
20
20
20
1C
00
00
00
00
00
00
00
00
ENDCHAR
STARTCHAR chr100
ENCODING 100
SWIDTH 500 0
DWIDTH 8 0
BBX 8 16 0 -2
BITMAP
00
02
02
1E
22
22
22
1E
00
00
00
00
00
00
00
00
ENDCHAR
STARTCHAR chr101
ENCODING 101
SWIDTH 500 0
DWIDTH 8 0
BBX 8 16 0 -2
BITMAP
00
00
00
1C
22
3E
20
1C
00
00
00
00
00
00
00
00
ENDCHAR
STARTCHAR chr102
ENCODING 102
SWIDTH 500 0
DWIDTH 8 0
BBX 8 16 0 -2
BITMAP
00
0C
10
1C
10
10
10
10
00
00
00
00
00
00
00
00
ENDCHAR
STARTCHAR chr103
ENCODING 103
SWIDTH 500 0
DWIDTH 8 0
BBX 8 16 0 -2
BITMAP
00
00
00
1E
22
22
1E
02
1C
00
00
00
00
00
00
00
ENDCHAR
STARTCHAR chr104
ENCODING 104
SWIDTH 500 0
DWIDTH 8 0
BBX 8 16 0 -2
BITMAP
00
20
20
3C
22
22
22
22
00
00
00
00
00
00
00
00
ENDCHAR
STARTCHAR chr105
ENCODING 105
SWIDTH 500 0
DWIDTH 8 0
BBX 8 16 0 -2
BITMAP
00
08
00
08
08
08
08
08
00
00
00
00
00
00
00
00
ENDCHAR
STARTCHAR chr106
ENCODING 106
SWIDTH 500 0
DWIDTH 8 0
BBX 8 16 0 -2
BITMAP
00
04
00
04
04
04
04
24
18
00
00
00
00
00
00
00
ENDCHAR
STARTCHAR chr107
ENCODING 107
SWIDTH 500 0
DWIDTH 8 0
BBX 8 16 0 -2
BITMAP
00
20
20
24
28
30
28
24
00
00
00
00
00
00
00
00
ENDCHAR
STARTCHAR chr108
ENCODING 108
SWIDTH 500 0
DWIDTH 8 0
BBX 8 16 0 -2
BITMAP
00
18
08
08
08
08
08
1C
00
00
00
00
00
00
00
00
ENDCHAR
STARTCHAR chr109
ENCODING 109
SWIDTH 500 0
DWIDTH 8 0
BBX 8 16 0 -2
BITMAP
00
00
00
36
2A
2A
2A
2A
00
00
00
00
00
00
00
00
ENDCHAR
STARTCHAR chr110
ENCODING 110
SWIDTH 500 0
DWIDTH 8 0
BBX 8 16 0 -2
BITMAP
00
00
00
3C
22
22
22
22
00
00
00
00
00
00
00
00
ENDCHAR
STARTCHAR chr111
ENCODING 111
SWIDTH 500 0
DWIDTH 8 0
BBX 8 16 0 -2
BITMAP
00
00
00
1C
22
22
22
1C
00
00
00
00
00
00
00
00
ENDCHAR
STARTCHAR chr112
ENCODING 112
SWIDTH 500 0
DWIDTH 8 0
BBX 8 16 0 -2
BITMAP
00
00
00
3C
22
22
3C
20
20
00
00
00
00
00
00
00
ENDCHAR
STARTCHAR chr113
ENCODING 113
SWIDTH 500 0
DWIDTH 8 0
BBX 8 16 0 -2
BITMAP
00
00
00
1E
22
22
1E
02
02
00
00
00
00
00
00
00
ENDCHAR
STARTCHAR chr114
ENCODING 114
SWIDTH 500 0
DWIDTH 8 0
BBX 8 16 0 -2
BITMAP
00
00
00
3C
22
20
20
20
00
00
00
00
00
00
00
00
ENDCHAR
STARTCHAR chr115
ENCODING 115
SWIDTH 500 0
DWIDTH 8 0
BBX 8 16 0 -2
BITMAP
00
00
00
1C
20
1C
02
1C
00
00
00
00
00
00
00
00
ENDCHAR
STARTCHAR chr116
ENCODING 116
SWIDTH 500 0
DWIDTH 8 0
BBX 8 16 0 -2
BITMAP
00
10
10
1C
10
10
10
0C
00
00
00
00
00
00
00
00
ENDCHAR
STARTCHAR chr117
ENCODING 117
SWIDTH 500 0
DWIDTH 8 0
BBX 8 16 0 -2
BITMAP
00
00
00
22
22
22
22
1E
00
00
00
00
00
00
00
00
ENDCHAR
STARTCHAR chr118
ENCODING 118
SWIDTH 500 0
DWIDTH 8 0
BBX 8 16 0 -2
BITMAP
00
00
00
22
22
14
14
08
00
00
00
00
00
00
00
00
ENDCHAR
STARTCHAR chr119
ENCODING 119
SWIDTH 500 0
DWIDTH 8 0
BBX 8 16 0 -2
BITMAP
00
00
00
22
2A
2A
2A
14
00
00
00
00
00
00
00
00
ENDCHAR
STARTCHAR chr120
ENCODING 120
SWIDTH 500 0
DWIDTH 8 0
BBX 8 16 0 -2
BITMAP
00
00
00
22
14
08
14
22
00
00
00
00
00
00
00
00
ENDCHAR
STARTCHAR chr121
ENCODING 121
SWIDTH 500 0
DWIDTH 8 0
BBX 8 16 0 -2
BITMAP
00
00
00
22
22
1E
02
1C
00
00
00
00
00
00
00
00
ENDCHAR
STARTCHAR chr122
ENCODING 122
SWIDTH 500 0
DWIDTH 8 0
BBX 8 16 0 -2
BITMAP
00
00
00
3E
04
08
10
3E
00
00
00
00
00
00
00
00
ENDCHAR
STARTCHAR chr123
ENCODING 123
SWIDTH 500 0
DWIDTH 8 0
BBX 8 16 0 -2
BITMAP
00
00
06
08
08
08
10
20
10
10
08
08
08
06
00
00
ENDCHAR
STARTCHAR chr124
ENCODING 124
SWIDTH 500 0
DWIDTH 8 0
BBX 8 16 0 -2
BITMAP
00
08
08
08
08
08
08
08
08
00
00
00
00
00
00
00
ENDCHAR
STARTCHAR chr125
ENCODING 125
SWIDTH 500 0
DWIDTH 8 0
BBX 8 16 0 -2
BITMAP
00
00
18
04
04
04
02
01
02
02
04
04
04
18
00
00
ENDCHAR
STARTCHAR chr126
ENCODING 126
SWIDTH 500 0
DWIDTH 8 0
BBX 8 16 0 -2
BITMAP
00
00
00
00
00
14
28
00
00
00
00
00
00
00
00
00
ENDCHAR
STARTCHAR chr127
ENCODING 127
SWIDTH 500 0
DWIDTH 8 0
BBX 8 16 0 -2
BITMAP
00
00
00
00
00
00
00
00
00
00
00
00
00
00
00
00
ENDCHAR
ENDFONT
